<?xml version="1.0" encoding="UTF-8" standalone="no"?><!-- Generator: Gravit.io --><svg xmlns="http://www.w3.org/2000/svg" xmlns:xlink="http://www.w3.org/1999/xlink" style="isolation:isolate" viewBox="-222 66.029 991 1075.971" width="991pt" height="1075.971pt"><defs><clipPath id="_clipPath_ZhF19o1ibK4h2AotXHA2Y9nLUFoiWcxu"><rect x="-222" y="66.029" width="991" height="1075.971"/></clipPath></defs><g clip-path="url(#_clipPath_ZhF19o1ibK4h2AotXHA2Y9nLUFoiWcxu)"><g filter="url(#jhL7Ke1vpRZ1blUxnWHFZ8c6BDRJ2N0G)"><path d=" M 437.941 454.46 L 437.941 454.46 C 428.994 361 355.594 288.029 266.5 288.029 C 177.406 288.029 104.006 361 95.059 454.46 L 95.059 454.46 L 95.059 679.177 L 124.505 679.177 L 124.505 454.46 L 124.505 454.46 C 133.342 378.47 193.59 319.596 266.5 319.596 C 339.41 319.596 399.658 378.47 408.495 454.46 L 408.495 454.46 L 408.495 679.177 L 437.941 679.177 L 437.941 454.46 Z " fill-rule="evenodd" fill="rgb(126,185,227)"/><path d=" M 408.495 511.035 L 408.495 679.177 L 437.941 679.177 L 437.941 477.113 L 408.495 511.035 Z " fill-rule="evenodd" fill="rgb(103,165,208)"/><rect x="0" y="632.126" width="533" height="273.874" transform="matrix(1,0,0,1,0,0)" fill="rgb(76,126,162)"/><path d=" M 0 632.126 L 533 632.126 L 533 906 L 0 906 L 0 632.126 Z  M 282.539 745.718 C 296.125 739.591 305.591 725.923 305.591 710.063 C 305.591 688.488 288.075 670.971 266.5 670.971 C 244.925 670.971 227.409 688.488 227.409 710.063 C 227.409 725.923 236.875 739.591 250.461 745.718 L 237.181 783.574 L 207.863 867.155 L 266.5 867.155 L 325.137 867.155 L 295.819 783.574 L 282.539 745.718 Z " fill-rule="evenodd" fill="rgb(126,185,227)"/><path d=" M 533 703.053 L 533 906 L 356.834 906 L 533 703.053 L 533 703.053 Z " fill-rule="evenodd" fill="rgb(102,164,208)"/></g><defs><filter id="jhL7Ke1vpRZ1blUxnWHFZ8c6BDRJ2N0G" x="-200%" y="-200%" width="400%" height="400%" filterUnits="objectBoundingBox" color-interpolation-filters="sRGB"><feGaussianBlur xmlns="http://www.w3.org/2000/svg" in="SourceGraphic" stdDeviation="36.49567703413174"/><feOffset xmlns="http://www.w3.org/2000/svg" dx="7" dy="7" result="pf_100_offsetBlur"/><feFlood xmlns="http://www.w3.org/2000/svg" flood-color="#3B3B3B" flood-opacity="0.26"/><feComposite xmlns="http://www.w3.org/2000/svg" in2="pf_100_offsetBlur" operator="in" result="pf_100_dropShadow"/><feBlend xmlns="http://www.w3.org/2000/svg" in="SourceGraphic" in2="pf_100_dropShadow" mode="normal"/></filter></defs></g></svg>