<?xml version="1.0" encoding="UTF-8" standalone="no"?><!-- Generator: Gravit.io --><svg xmlns="http://www.w3.org/2000/svg" xmlns:xlink="http://www.w3.org/1999/xlink" style="isolation:isolate" viewBox="-487.265 66.029 1519.265 1075.971" width="1519.265pt" height="1075.971pt"><defs><clipPath id="_clipPath_i62GWvRDTc2AEEsgBiNTNvgf20DZ6y8o"><rect x="-487.265" y="66.029" width="1519.265" height="1075.971"/></clipPath></defs><g clip-path="url(#_clipPath_i62GWvRDTc2AEEsgBiNTNvgf20DZ6y8o)"><g filter="url(#6jM9uRglVSDI708jw8RvFhz6KkCaT6MX)"><path d=" M 437.941 454.46 L 437.941 454.46 C 428.994 361 355.594 288.029 266.5 288.029 C 177.406 288.029 104.006 361 95.059 454.46 L 95.059 454.46 L 95.059 679.177 L 124.505 679.177 L 124.505 454.46 L 124.505 454.46 C 133.342 378.47 193.59 319.596 266.5 319.596 C 339.41 319.596 399.658 378.47 408.495 454.46 L 408.495 454.46 L 408.495 679.177 L 437.941 679.177 L 437.941 454.46 Z " fill-rule="evenodd" fill="rgb(126,185,227)"/><path d=" M 408.495 511.035 L 408.495 679.177 L 437.941 679.177 L 437.941 477.113 L 408.495 511.035 Z " fill-rule="evenodd" fill="rgb(103,165,208)"/><rect x="0" y="632.126" width="533" height="273.874" transform="matrix(1,0,0,1,0,0)" fill="rgb(76,126,162)"/><path d=" M 0 632.126 L 533 632.126 L 533 906 L 0 906 L 0 632.126 Z  M 282.539 745.718 C 296.125 739.591 305.591 725.923 305.591 710.063 C 305.591 688.488 288.075 670.971 266.5 670.971 C 244.925 670.971 227.409 688.488 227.409 710.063 C 227.409 725.923 236.875 739.591 250.461 745.718 L 237.181 783.574 L 207.863 867.155 L 266.5 867.155 L 325.137 867.155 L 295.819 783.574 L 282.539 745.718 Z " fill-rule="evenodd" fill="rgb(126,185,227)"/><path d=" M 533 703.053 L 533 906 L 356.834 906 L 533 703.053 L 533 703.053 Z " fill-rule="evenodd" fill="rgb(102,164,208)"/></g><defs><filter id="6jM9uRglVSDI708jw8RvFhz6KkCaT6MX" x="-200%" y="-200%" width="400%" height="400%" filterUnits="objectBoundingBox" color-interpolation-filters="sRGB"><feGaussianBlur xmlns="http://www.w3.org/2000/svg" in="SourceGraphic" stdDeviation="36.49567703413174"/><feOffset xmlns="http://www.w3.org/2000/svg" dx="7" dy="7" result="pf_100_offsetBlur"/><feFlood xmlns="http://www.w3.org/2000/svg" flood-color="#3B3B3B" flood-opacity="0.26"/><feComposite xmlns="http://www.w3.org/2000/svg" in2="pf_100_offsetBlur" operator="in" result="pf_100_dropShadow"/><feBlend xmlns="http://www.w3.org/2000/svg" in="SourceGraphic" in2="pf_100_dropShadow" mode="normal"/></filter></defs><defs><filter id="e63UyQEeFeRoMlTsqWURiCt0H22obe8z" x="-200%" y="-200%" width="400%" height="400%" filterUnits="objectBoundingBox" color-interpolation-filters="sRGB"><feGaussianBlur xmlns="http://www.w3.org/2000/svg" in="SourceGraphic" stdDeviation="23.185488939330753"/><feOffset xmlns="http://www.w3.org/2000/svg" dx="5" dy="4" result="pf_100_offsetBlur"/><feFlood xmlns="http://www.w3.org/2000/svg" flood-color="#3B3B3B" flood-opacity="0.52"/><feComposite xmlns="http://www.w3.org/2000/svg" in2="pf_100_offsetBlur" operator="in" result="pf_100_dropShadow"/><feBlend xmlns="http://www.w3.org/2000/svg" in="SourceGraphic" in2="pf_100_dropShadow" mode="normal"/></filter></defs><g filter="url(#e63UyQEeFeRoMlTsqWURiCt0H22obe8z)"><path d="M -402.379 394.89 L 44.269 394.89 C 54.695 394.89 63.16 403.355 63.16 413.781 L 63.16 440.769 C 63.16 451.195 54.695 459.66 44.269 459.66 L -402.379 459.66 C -412.805 459.66 -421.27 451.195 -421.27 440.769 L -421.27 413.781 C -421.27 403.355 -412.805 394.89 -402.379 394.89 Z" style="stroke:none;fill:#3581B8;stroke-miterlimit:10;"/></g><defs><filter id="YHbhYG2Ojl85jy2tneA2x4vZpYozBdRJ" x="-200%" y="-200%" width="400%" height="400%" filterUnits="objectBoundingBox" color-interpolation-filters="sRGB"><feGaussianBlur xmlns="http://www.w3.org/2000/svg" in="SourceGraphic" stdDeviation="23.185488939330753"/><feOffset xmlns="http://www.w3.org/2000/svg" dx="5" dy="4" result="pf_100_offsetBlur"/><feFlood xmlns="http://www.w3.org/2000/svg" flood-color="#3B3B3B" flood-opacity="0.52"/><feComposite xmlns="http://www.w3.org/2000/svg" in2="pf_100_offsetBlur" operator="in" result="pf_100_dropShadow"/><feBlend xmlns="http://www.w3.org/2000/svg" in="SourceGraphic" in2="pf_100_dropShadow" mode="normal"/></filter></defs><g filter="url(#YHbhYG2Ojl85jy2tneA2x4vZpYozBdRJ)"><path d="M 490.471 394.89 L 937.109 394.89 C 947.535 394.89 956 403.355 956 413.781 L 956 440.769 C 956 451.195 947.535 459.66 937.109 459.66 L 490.471 459.66 C 480.045 459.66 471.58 451.195 471.58 440.769 L 471.58 413.781 C 471.58 403.355 480.045 394.89 490.471 394.89 Z" style="stroke:none;fill:#3581B8;stroke-miterlimit:10;"/></g><defs><filter id="u2Wm7ZLxcnPuFVEeZWiOF910Ai3Vh1XN" x="-200%" y="-200%" width="400%" height="400%" filterUnits="objectBoundingBox" color-interpolation-filters="sRGB"><feGaussianBlur xmlns="http://www.w3.org/2000/svg" in="SourceGraphic" stdDeviation="23.185488939330753"/><feOffset xmlns="http://www.w3.org/2000/svg" dx="5" dy="4" result="pf_100_offsetBlur"/><feFlood xmlns="http://www.w3.org/2000/svg" flood-color="#3B3B3B" flood-opacity="0.52"/><feComposite xmlns="http://www.w3.org/2000/svg" in2="pf_100_offsetBlur" operator="in" result="pf_100_dropShadow"/><feBlend xmlns="http://www.w3.org/2000/svg" in="SourceGraphic" in2="pf_100_dropShadow" mode="normal"/></filter></defs><g filter="url(#u2Wm7ZLxcnPuFVEeZWiOF910Ai3Vh1XN)"><path d="M -402.379 516.35 L 44.269 516.35 C 54.695 516.35 63.16 524.815 63.16 535.241 L 63.16 562.229 C 63.16 572.655 54.695 581.12 44.269 581.12 L -402.379 581.12 C -412.805 581.12 -421.27 572.655 -421.27 562.229 L -421.27 535.241 C -421.27 524.815 -412.805 516.35 -402.379 516.35 Z" style="stroke:none;fill:#3581B8;stroke-miterlimit:10;"/></g><defs><filter id="i0uLR8B3MVsLUk5nKSGxdDLhAxZ7rSxI" x="-200%" y="-200%" width="400%" height="400%" filterUnits="objectBoundingBox" color-interpolation-filters="sRGB"><feGaussianBlur xmlns="http://www.w3.org/2000/svg" in="SourceGraphic" stdDeviation="23.185488939330753"/><feOffset xmlns="http://www.w3.org/2000/svg" dx="5" dy="4" result="pf_100_offsetBlur"/><feFlood xmlns="http://www.w3.org/2000/svg" flood-color="#3B3B3B" flood-opacity="0.52"/><feComposite xmlns="http://www.w3.org/2000/svg" in2="pf_100_offsetBlur" operator="in" result="pf_100_dropShadow"/><feBlend xmlns="http://www.w3.org/2000/svg" in="SourceGraphic" in2="pf_100_dropShadow" mode="normal"/></filter></defs><g filter="url(#i0uLR8B3MVsLUk5nKSGxdDLhAxZ7rSxI)"><path d="M 490.471 516.35 L 937.109 516.35 C 947.535 516.35 956 524.815 956 535.241 L 956 562.229 C 956 572.655 947.535 581.12 937.109 581.12 L 490.471 581.12 C 480.045 581.12 471.58 572.655 471.58 562.229 L 471.58 535.241 C 471.58 524.815 480.045 516.35 490.471 516.35 Z" style="stroke:none;fill:#3581B8;stroke-miterlimit:10;"/></g><g clip-path="url(#_clipPath_qTK8Ngfi8XQfLWJC8KrIjiJzb025Oypu)"><text transform="matrix(1.349,0,0,1.349,-411.82,438.484)" style="font-family:'Space Grotesk';font-weight:500;font-size:24px;font-style:normal;fill:#ffffff;stroke:none;">Meeting with Sam</text></g><defs><clipPath id="_clipPath_qTK8Ngfi8XQfLWJC8KrIjiJzb025Oypu"><rect x="0" y="0" width="292" height="71.558" transform="matrix(1.349,0,0,1.349,-411.82,379)"/></clipPath></defs><g clip-path="url(#_clipPath_G1NfuP9ilkjoPk07d0ixMhNyNkqI4rxC)"><text transform="matrix(1.349,0,0,1.349,481.023,438.484)" style="font-family:'Space Grotesk';font-weight:500;font-size:24px;font-style:normal;fill:#ffffff;stroke:none;">k@nmxSE3RR3iL$)Yt'</text></g><defs><clipPath id="_clipPath_G1NfuP9ilkjoPk07d0ixMhNyNkqI4rxC"><rect x="0" y="0" width="292" height="71.558" transform="matrix(1.349,0,0,1.349,481.023,379)"/></clipPath></defs><g clip-path="url(#_clipPath_mwLcmTb8rYNvMe14ZyxrHks4F8z2NDEw)"><text transform="matrix(1.349,0,0,1.349,-411.82,559.94)" style="font-family:'Space Grotesk';font-weight:500;font-size:24px;font-style:normal;fill:#ffffff;stroke:none;">Cinema with Leo</text></g><defs><clipPath id="_clipPath_mwLcmTb8rYNvMe14ZyxrHks4F8z2NDEw"><rect x="0" y="0" width="292" height="71.558" transform="matrix(1.349,0,0,1.349,-411.82,500.456)"/></clipPath></defs><g clip-path="url(#_clipPath_RI7ls6sZzt0hrvW19ySouuE0UgwyxOOC)"><text transform="matrix(1.349,0,0,1.349,481.023,559.94)" style="font-family:'Space Grotesk';font-weight:500;font-size:24px;font-style:normal;fill:#ffffff;stroke:none;">HEord$ZL*7tPby_6tk</text></g><defs><clipPath id="_clipPath_RI7ls6sZzt0hrvW19ySouuE0UgwyxOOC"><rect x="0" y="0" width="292" height="71.558" transform="matrix(1.349,0,0,1.349,481.023,500.456)"/></clipPath></defs><g clip-path="url(#_clipPath_2xeJ31f6ah5SeBpgUD0ub6SACv93OXtV)"><text transform="matrix(1.349,0,0,1.349,-43.875,438.484)" style="font-family:'Space Grotesk';font-weight:500;font-size:24px;font-style:normal;fill:#ffffff;stroke:none;">10h00</text></g><defs><clipPath id="_clipPath_2xeJ31f6ah5SeBpgUD0ub6SACv93OXtV"><rect x="0" y="0" width="107" height="71.558" transform="matrix(1.349,0,0,1.349,-66.382,379)"/></clipPath></defs><g clip-path="url(#_clipPath_i3eVxtHMauzcR6xoJSw4s7NNQQYwkuGE)"><text transform="matrix(1.349,0,0,1.349,857.556,438.484)" style="font-family:'Space Grotesk';font-weight:500;font-size:24px;font-style:normal;fill:#ffffff;stroke:none;">**h**</text></g><defs><clipPath id="_clipPath_i3eVxtHMauzcR6xoJSw4s7NNQQYwkuGE"><rect x="0" y="0" width="107" height="71.558" transform="matrix(1.349,0,0,1.349,831,379)"/></clipPath></defs><g clip-path="url(#_clipPath_si9HapYeEvd9E6kjQUjctaE1fWysKfA8)"><text transform="matrix(1.349,0,0,1.349,-43.114,559.94)" style="font-family:'Space Grotesk';font-weight:500;font-size:24px;font-style:normal;fill:#ffffff;stroke:none;">21h00</text></g><defs><clipPath id="_clipPath_si9HapYeEvd9E6kjQUjctaE1fWysKfA8"><rect x="0" y="0" width="107" height="71.558" transform="matrix(1.349,0,0,1.349,-66.382,500.456)"/></clipPath></defs><g clip-path="url(#_clipPath_59rCtGR8N4ir0eZOVJI0nQ4OgeCI72MX)"><text transform="matrix(1.349,0,0,1.349,857.556,559.94)" style="font-family:'Space Grotesk';font-weight:500;font-size:24px;font-style:normal;fill:#ffffff;stroke:none;">**h**</text></g><defs><clipPath id="_clipPath_59rCtGR8N4ir0eZOVJI0nQ4OgeCI72MX"><rect x="0" y="0" width="107" height="71.558" transform="matrix(1.349,0,0,1.349,831,500.456)"/></clipPath></defs></g></svg>